<svg width="22" height="19" viewBox="0 0 22 19" fill="none" xmlns="http://www.w3.org/2000/svg">
<path d="M17 3.75H5C2.79086 3.75 1 5.54086 1 7.75V9.35C1 9.35 3.5 10.75 11 10.75C18.5 10.75 21 9.35 21 9.35V7.75C21 5.54086 19.2091 3.75 17 3.75Z" stroke="#162741" stroke-width="1.4"/>
<path d="M15 2.75V2.75C15 1.64543 14.1046 0.75 13 0.75H9C7.89543 0.75 7 1.64543 7 2.75V2.75" stroke="#162741" stroke-width="1.4" stroke-linecap="round"/>
<path d="M20 9.56607H20.7V8.54409L19.7471 8.91336L20 9.56607ZM2 9.56607L2.25293 8.91336L1.3 8.54409V9.56607H2ZM16 17.55H6V18.95H16V17.55ZM19.3 9.56607V13.2878H20.7V9.56607H19.3ZM2.7 13.2878V9.56607H1.3V13.2878H2.7ZM6 17.55C4.31082 17.55 2.7 15.7902 2.7 13.2878H1.3C1.3 16.2665 3.2709 18.95 6 18.95V17.55ZM16 18.95C18.7291 18.95 20.7 16.2665 20.7 13.2878H19.3C19.3 15.7902 17.6892 17.55 16 17.55V18.95ZM11 11.5235C15.977 11.5235 18.8318 10.7695 20.2529 10.2188L19.7471 8.91336C18.515 9.39079 15.8365 10.1235 11 10.1235V11.5235ZM1.74707 10.2188C3.16823 10.7695 6.02301 11.5235 11 11.5235V10.1235C6.16348 10.1235 3.48497 9.39079 2.25293 8.91336L1.74707 10.2188Z" fill="#162741"/>
<path d="M11 9.75V12.75" stroke="#162741" stroke-width="1.4" stroke-linecap="round"/>
</svg>
