<svg width="22" height="21" viewBox="0 0 22 21" fill="none" xmlns="http://www.w3.org/2000/svg">
<path d="M17 4.5H5C2.79086 4.5 1 6.29086 1 8.5V10.1C1 10.1 3.5 11.5 11 11.5C18.5 11.5 21 10.1 21 10.1V8.5C21 6.29086 19.2091 4.5 17 4.5Z" fill="white" stroke="white" stroke-width="1.4"/>
<path d="M15 3.5V3.5C15 2.39543 14.1046 1.5 13 1.5H9C7.89543 1.5 7 2.39543 7 3.5V3.5" stroke="white" stroke-width="1.4" stroke-linecap="round"/>
<path d="M6 19.5H16C18.2091 19.5 20 17.7091 20 15.5V12.5C18.6734 12.9144 15.9068 13.5136 11 13.5136C6.09324 13.5136 3.3266 12.9144 2 12.5V15.5C2 17.7091 3.79086 19.5 6 19.5Z" fill="white"/>
<path d="M20 12.5H20.7V11.548L19.7913 11.8318L20 12.5ZM2 12.5L2.20871 11.8318L1.3 11.548V12.5H2ZM16 18.8H6V20.2H16V18.8ZM19.3 12.5V15.5H20.7V12.5H19.3ZM2.7 15.5V12.5H1.3V15.5H2.7ZM6 18.8C4.17746 18.8 2.7 17.3225 2.7 15.5H1.3C1.3 18.0957 3.40426 20.2 6 20.2V18.8ZM16 20.2C18.5957 20.2 20.7 18.0957 20.7 15.5H19.3C19.3 17.3225 17.8225 18.8 16 18.8V20.2ZM11 14.2136C15.9625 14.2136 18.8016 13.6077 20.2087 13.1682L19.7913 11.8318C18.5452 12.2211 15.851 12.8136 11 12.8136V14.2136ZM1.79129 13.1682C3.19843 13.6077 6.03749 14.2136 11 14.2136V12.8136C6.149 12.8136 3.45477 12.2211 2.20871 11.8318L1.79129 13.1682Z" fill="white"/>
<path d="M11 10.5V13.5" stroke="#E91327" stroke-width="1.4" stroke-linecap="round"/>
</svg>
