<svg width="35" height="36" viewBox="0 0 35 36" fill="none" xmlns="http://www.w3.org/2000/svg">
<circle cx="17.5" cy="17.6138" r="17.5" fill="#162741" fill-opacity="0.75"/>
<path d="M22.1255 12.2771C22.1255 10.141 19.7624 8.85078 17.9655 10.0059L14.5411 12.2073C14.3314 12.3421 14.0874 12.4138 13.8381 12.4138H12.4255C10.9344 12.4138 9.72554 13.6226 9.72554 15.1138V20.1138C9.72554 21.6049 10.9344 22.8138 12.4255 22.8138H13.8381C14.0874 22.8138 14.3314 22.8854 14.5411 23.0202L17.9655 25.2216C19.7624 26.3768 22.1255 25.0866 22.1255 22.9504V12.2771Z" stroke="white" stroke-width="1.4"/>
<path d="M25.4255 13.6138C26.1062 14.7905 26.4958 16.1566 26.4958 17.6138C26.4958 19.0709 26.1062 20.4371 25.4255 21.6138" stroke="white" stroke-width="1.4" stroke-linecap="round"/>
</svg>
