<svg width="53" height="50" viewBox="0 0 53 50" fill="none" xmlns="http://www.w3.org/2000/svg">
<rect width="53" height="50" rx="4" fill="white"/>
<path fill-rule="evenodd" clip-rule="evenodd" d="M23.2733 24.5984C23.2913 24.6144 23.3083 24.6294 23.3253 24.6474C24.4043 25.7534 24.9993 27.2184 24.9993 28.7734V32.7574L27.2353 31.5394C27.4113 31.4434 27.5203 31.2554 27.5203 31.0484V28.7614C27.5203 27.2124 28.1093 25.7524 29.1783 24.6524L34.0153 19.5074C34.3283 19.1744 34.5003 18.7374 34.5003 18.2764V17.3404C34.5003 16.8764 34.1343 16.4994 33.6863 16.4994H18.8153C18.3663 16.4994 18.0003 16.8764 18.0003 17.3404V18.2764C18.0003 18.7374 18.1723 19.1744 18.4853 19.5064L23.2733 24.5984ZM24.6463 34.5004C24.4443 34.5004 24.2443 34.4464 24.0623 34.3384C23.7103 34.1284 23.4993 33.7574 23.4993 33.3454V28.7734C23.4993 27.6384 23.0763 26.5694 22.3053 25.7504C22.2823 25.7314 22.2593 25.7104 22.2393 25.6884L17.3933 20.5354C16.8173 19.9234 16.5003 19.1204 16.5003 18.2764V17.3404C16.5003 16.0494 17.5393 14.9994 18.8153 14.9994H33.6863C34.9613 14.9994 36.0003 16.0494 36.0003 17.3404V18.2764C36.0003 19.1194 35.6833 19.9214 35.1093 20.5344L30.2623 25.6884C29.4593 26.5164 29.0203 27.6054 29.0203 28.7614V31.0484C29.0203 31.8044 28.6113 32.4964 27.9533 32.8564L25.1923 34.3604C25.0203 34.4534 24.8333 34.5004 24.6463 34.5004Z" fill="#455267"/>
</svg>
