<svg width="35" height="35" viewBox="0 0 35 35" fill="none" xmlns="http://www.w3.org/2000/svg">
<rect y="-2.38419e-07" width="35" height="35" rx="17.5" fill="#162741" fill-opacity="0.75"/>
<path d="M10.4656 14.2164C10.5153 13.3879 11.2017 12.7414 12.0317 12.7414H22.9684C23.7985 12.7414 24.4849 13.3879 24.5346 14.2164L25.124 24.044C25.1781 24.9458 24.4613 25.7069 23.5579 25.7069H11.4423C10.5388 25.7069 9.82206 24.9458 9.87615 24.044L10.4656 14.2164Z" fill="white" stroke="white" stroke-width="1.68966"/>
<path d="M14.0518 12.3276V11.8966C14.0518 9.99212 15.5956 8.44828 17.5 8.44828C19.4045 8.44828 20.9483 9.99212 20.9483 11.8966V12.3276" stroke="white" stroke-width="1.68966" stroke-linecap="round"/>
<circle cx="14.9138" cy="15.3448" r="0.862069" fill="black"/>
<circle cx="20.0862" cy="15.3448" r="0.862069" fill="black"/>
</svg>
