<svg width="22" height="20" viewBox="0 0 22 20" fill="none" xmlns="http://www.w3.org/2000/svg">
<path d="M17.2319 4H5.23193C3.02279 4 1.23193 5.79086 1.23193 8V9.6C1.23193 9.6 3.73193 11 11.2319 11C18.7319 11 21.2319 9.6 21.2319 9.6V8C21.2319 5.79086 19.4411 4 17.2319 4Z" stroke="#162741" stroke-width="1.4"/>
<path d="M20.2319 12V15C20.2319 17.2091 18.4411 19 16.2319 19H6.23193C4.02279 19 2.23193 17.2091 2.23193 15V12" stroke="#162741" stroke-width="1.4" stroke-linecap="round"/>
<path d="M15.2319 3V3C15.2319 1.89543 14.3365 1 13.2319 1H9.23193C8.12736 1 7.23193 1.89543 7.23193 3V3" stroke="#162741" stroke-width="1.4" stroke-linecap="round"/>
<path d="M11.2319 10V13" stroke="#162741" stroke-width="1.4" stroke-linecap="round"/>
</svg>
