<svg width="36" height="29" viewBox="0 0 36 29" fill="none" xmlns="http://www.w3.org/2000/svg">
<path d="M31.0466 25.1315V12.0593C31.0466 10.4024 29.7035 9.05927 28.0466 9.05927H8.264C6.60714 9.05927 5.264 10.4024 5.264 12.0593V25.1315C5.264 26.7884 6.60714 28.1315 8.264 28.1315H28.0466C29.7035 28.1315 31.0466 26.7884 31.0466 25.1315Z" fill="#3B3B9C" stroke="#3B3B9C" stroke-width="1.4"/>
<path d="M20.094 18.4798L20.094 28.1316L26.2021 28.1316L26.2021 18.4798C26.2021 17.9275 25.7544 17.4798 25.2021 17.4798L21.094 17.4798C20.5417 17.4798 20.094 17.9275 20.094 18.4798Z" fill="#EDEDF6"/>
<mask id="path-3-outside-1_29_3475" maskUnits="userSpaceOnUse" x="-0.201141" y="0.360748" width="36" height="15" fill="black">
<rect fill="white" x="-0.201141" y="0.360748" width="36" height="15"/>
<path d="M5.84914 13.5769C8.08604 13.5769 9.89941 11.7402 9.89941 9.47452C9.89941 11.7402 11.7128 13.5769 13.9497 13.5769C16.1866 13.5769 18 11.7402 18 9.47452C18 11.7402 19.8133 13.5769 22.0502 13.5769C24.2871 13.5769 26.1005 11.7402 26.1005 9.47452C26.1005 11.7402 27.9139 13.5769 30.1508 13.5769C32.3877 13.5769 34.2011 11.7402 34.2011 9.47452L32.7581 3.13869C32.6545 2.68361 32.2498 2.36075 31.7831 2.36075H4.21683C3.7501 2.36075 3.34544 2.68361 3.2418 3.13869L1.79886 9.47452C1.79886 11.7402 3.61223 13.5769 5.84914 13.5769Z"/>
</mask>
<path d="M5.84914 13.5769C8.08604 13.5769 9.89941 11.7402 9.89941 9.47452C9.89941 11.7402 11.7128 13.5769 13.9497 13.5769C16.1866 13.5769 18 11.7402 18 9.47452C18 11.7402 19.8133 13.5769 22.0502 13.5769C24.2871 13.5769 26.1005 11.7402 26.1005 9.47452C26.1005 11.7402 27.9139 13.5769 30.1508 13.5769C32.3877 13.5769 34.2011 11.7402 34.2011 9.47452L32.7581 3.13869C32.6545 2.68361 32.2498 2.36075 31.7831 2.36075H4.21683C3.7501 2.36075 3.34544 2.68361 3.2418 3.13869L1.79886 9.47452C1.79886 11.7402 3.61223 13.5769 5.84914 13.5769Z" fill="#3B3B9C"/>
<path d="M11.2994 9.47452C11.2994 8.70132 10.6726 8.07452 9.89941 8.07452C9.12621 8.07452 8.49941 8.70132 8.49941 9.47452H11.2994ZM1.79886 9.47452L0.433812 9.16364L0.398859 9.31711V9.47452H1.79886ZM19.4 9.47452C19.4 8.70132 18.7732 8.07452 18 8.07452C17.2268 8.07452 16.6 8.70132 16.6 9.47452H19.4ZM27.5005 9.47452C27.5005 8.70132 26.8737 8.07452 26.1005 8.07452C25.3273 8.07452 24.7005 8.70132 24.7005 9.47452H27.5005ZM34.2011 9.47452H35.6011V9.31711L35.5661 9.16364L34.2011 9.47452ZM3.2418 3.13869L4.60685 3.44957L3.2418 3.13869ZM32.7581 3.13869L34.1232 2.82781V2.82781L32.7581 3.13869ZM8.49941 9.47452C8.49941 10.9839 7.29603 12.1769 5.84914 12.1769V14.9769C8.87606 14.9769 11.2994 12.4965 11.2994 9.47452H8.49941ZM5.84914 12.1769C4.40225 12.1769 3.19886 10.9839 3.19886 9.47452H0.398859C0.398859 12.4965 2.82221 14.9769 5.84914 14.9769V12.1769ZM16.6 9.47452C16.6 10.9839 15.3966 12.1769 13.9497 12.1769V14.9769C16.9766 14.9769 19.4 12.4965 19.4 9.47452H16.6ZM13.9497 12.1769C12.5028 12.1769 11.2994 10.9839 11.2994 9.47452H8.49941C8.49941 12.4965 10.9228 14.9769 13.9497 14.9769V12.1769ZM24.7005 9.47452C24.7005 10.9839 23.4971 12.1769 22.0502 12.1769V14.9769C25.0772 14.9769 27.5005 12.4965 27.5005 9.47452H24.7005ZM22.0502 12.1769C20.6034 12.1769 19.4 10.9839 19.4 9.47452H16.6C16.6 12.4965 19.0233 14.9769 22.0502 14.9769V12.1769ZM32.8011 9.47452C32.8011 10.9839 31.5977 12.1769 30.1508 12.1769V14.9769C33.1777 14.9769 35.6011 12.4965 35.6011 9.47452H32.8011ZM30.1508 12.1769C28.7039 12.1769 27.5005 10.9839 27.5005 9.47452H24.7005C24.7005 12.4965 27.1239 14.9769 30.1508 14.9769V12.1769ZM3.16391 9.7854L4.60685 3.44957L1.87675 2.82781L0.433812 9.16364L3.16391 9.7854ZM4.21683 3.76075H31.7831V0.960748H4.21683V3.76075ZM31.3931 3.44957L32.836 9.7854L35.5661 9.16364L34.1232 2.82781L31.3931 3.44957ZM31.7831 3.76075C31.5964 3.76075 31.4345 3.6316 31.3931 3.44957L34.1232 2.82781C33.8744 1.73562 32.9033 0.960748 31.7831 0.960748V3.76075ZM4.60685 3.44957C4.56539 3.6316 4.40353 3.76075 4.21683 3.76075V0.960748C3.09668 0.960748 2.12549 1.73562 1.87675 2.82781L4.60685 3.44957Z" fill="#EDEDF6" mask="url(#path-3-outside-1_29_3475)"/>
<rect x="10.1032" y="17.4792" width="6.27155" height="5.01724" rx="1" fill="#EDEDF6"/>
</svg>
