<svg width="22" height="20" viewBox="0 0 22 20" fill="none" xmlns="http://www.w3.org/2000/svg">
<path d="M17.2319 4H5.23187C3.02273 4 1.23187 5.79086 1.23187 8V9.6C1.23187 9.6 3.73187 11 11.2319 11C18.7319 11 21.2319 9.6 21.2319 9.6V8C21.2319 5.79086 19.441 4 17.2319 4Z" stroke="#162741" stroke-width="1.4"/>
<path d="M20.2319 12V15C20.2319 17.2091 18.441 19 16.2319 19H6.23187C4.02273 19 2.23187 17.2091 2.23187 15V12" stroke="#162741" stroke-width="1.4" stroke-linecap="round"/>
<path d="M15.2319 3V3C15.2319 1.89543 14.3364 1 13.2319 1H9.23187C8.1273 1 7.23187 1.89543 7.23187 3V3" stroke="#162741" stroke-width="1.4" stroke-linecap="round"/>
<path d="M11.2319 10V13" stroke="#162741" stroke-width="1.4" stroke-linecap="round"/>
</svg>
