<svg width="16" height="16" viewBox="0 0 16 16" fill="none" xmlns="http://www.w3.org/2000/svg">
<path d="M3.78564 12.0154C4.98096 13.1873 6.39893 13.7732 8.03955 13.7732C9.68018 13.7732 11.0864 13.1873 12.2583 12.0154C13.4536 10.8201 14.0513 9.40213 14.0513 7.76151C14.0513 6.12088 13.4536 4.71463 12.2583 3.54276C11.0864 2.34744 9.68018 1.74979 8.03955 1.74979C6.39893 1.74979 4.98096 2.34744 3.78564 3.54276C2.61377 4.71463 2.02783 6.12088 2.02783 7.76151C2.02783 9.40213 2.61377 10.8201 3.78564 12.0154ZM2.73096 2.48807C4.20752 1.01151 5.97705 0.273224 8.03955 0.273224C10.1021 0.273224 11.8599 1.01151 13.313 2.48807C14.7896 3.94119 15.5278 5.69901 15.5278 7.76151C15.5278 9.82401 14.7896 11.5935 13.313 13.0701C11.8599 14.5232 10.1021 15.2498 8.03955 15.2498C5.97705 15.2498 4.20752 14.5232 2.73096 13.0701C1.27783 11.5935 0.55127 9.82401 0.55127 7.76151C0.55127 5.69901 1.27783 3.94119 2.73096 2.48807ZM4.27783 7.02322H11.8013V8.49979H4.27783V7.02322Z" fill="#E91327"/>
</svg>
