<svg width="25" height="23" viewBox="0 0 25 23" fill="none" xmlns="http://www.w3.org/2000/svg">
<path d="M1.59033 5.69776C1.59033 3.48862 3.38119 1.69775 5.59033 1.69775H19.5903C21.7995 1.69775 23.5903 3.48862 23.5903 5.69775V13.6528C23.5903 15.8619 21.7995 17.6528 19.5903 17.6528H14.8252C13.4363 17.6528 12.1469 18.3732 11.4188 19.5559L10.6919 20.7368C10.3014 21.3712 9.37925 21.3712 8.98874 20.7368L8.12378 19.3316C7.48154 18.2883 6.34406 17.6528 5.1189 17.6528V17.6528C3.17012 17.6528 1.59033 16.073 1.59033 14.1242V5.69776Z" stroke="#162741" stroke-width="1.4"/>
<path d="M10.5903 7.71876C10.5903 6.60259 11.4857 5.69775 12.5903 5.69775C13.6948 5.69775 14.5902 6.60259 14.5902 7.71876C14.5902 8.12314 14.4727 8.49978 14.2703 8.81571C13.6744 9.74575 12.5903 10.6352 12.5903 11.7398V12.0976" stroke="#162741" stroke-width="1.4" stroke-linecap="round"/>
<path d="M12.5903 14.7399V14.6978" stroke="#162741" stroke-width="1.4" stroke-linecap="round"/>
</svg>
