<svg width="21" height="20" viewBox="0 0 21 20" fill="none" xmlns="http://www.w3.org/2000/svg">
<path d="M9.70023 1.63385C10.0718 0.908205 11.1089 0.908205 11.4804 1.63385L13.6632 5.89673C13.8084 6.1804 14.0802 6.37785 14.3949 6.42834L19.1236 7.18696C19.9286 7.3161 20.2491 8.30242 19.6737 8.88003L16.294 12.2733C16.0691 12.4991 15.9653 12.8185 16.0145 13.1334L16.7543 17.8652C16.8802 18.6706 16.0412 19.2802 15.3141 18.9115L11.0425 16.7458C10.7583 16.6017 10.4224 16.6017 10.1381 16.7458L5.86657 18.9115C5.13945 19.2802 4.30043 18.6706 4.42636 17.8652L5.16613 13.1334C5.21536 12.8185 5.11155 12.4991 4.88664 12.2733L1.50692 8.88003C0.931605 8.30242 1.25208 7.3161 2.05703 7.18696L6.78578 6.42834C7.10045 6.37785 7.37222 6.1804 7.51747 5.89673L9.70023 1.63385Z" stroke="#162741" stroke-width="1.5"/>
</svg>
