<svg width="20" height="20" viewBox="0 0 20 20" fill="none" xmlns="http://www.w3.org/2000/svg">
<circle cx="7.5673" cy="4.75651" r="4.05651" stroke="#162741" stroke-width="1.4"/>
<path d="M14.4343 15.6758C14.4343 16.5102 13.8361 17.4025 12.5707 18.1256C11.3251 18.8374 9.55754 19.2998 7.56717 19.2998C5.5768 19.2998 3.80928 18.8374 2.56367 18.1256C1.29826 17.4025 0.7 16.5102 0.7 15.6758C0.7 14.8413 1.29826 13.949 2.56367 13.2259C3.80928 12.5141 5.5768 12.0517 7.56717 12.0517C9.55754 12.0517 11.3251 12.5141 12.5707 13.2259C13.8361 13.949 14.4343 14.8413 14.4343 15.6758Z" stroke="#162741" stroke-width="1.4"/>
<path d="M16.6576 5.45392V9.99913" stroke="#162741" stroke-width="1.4" stroke-linecap="round"/>
<path d="M18.9302 7.72623L14.385 7.72623" stroke="#162741" stroke-width="1.4" stroke-linecap="round"/>
</svg>
