<svg width="23" height="23" viewBox="0 0 23 23" fill="none" xmlns="http://www.w3.org/2000/svg">
<circle cx="11.5903" cy="11.5" r="10.3" stroke="#162741" stroke-width="1.4"/>
<path d="M15.8903 11.5C15.8903 14.4612 15.3433 17.1081 14.4886 18.9885C13.6052 20.9321 12.5277 21.8 11.5903 21.8C10.6529 21.8 9.57551 20.9321 8.69205 18.9885C7.83732 17.1081 7.29033 14.4612 7.29033 11.5C7.29033 8.53883 7.83732 5.8919 8.69205 4.01149C9.57551 2.06788 10.6529 1.2 11.5903 1.2C12.5277 1.2 13.6052 2.06788 14.4886 4.01149C15.3433 5.8919 15.8903 8.53883 15.8903 11.5Z" stroke="#162741" stroke-width="1.4"/>
<path d="M20.0903 5.67392C18.0729 6.78892 15.0143 7.5 11.5903 7.5C8.16637 7.5 5.10778 6.78892 3.09033 5.67392" stroke="#162741" stroke-width="1.4"/>
<path d="M3.09033 17.3261C5.10778 16.2111 8.16636 15.5 11.5903 15.5C15.0143 15.5 18.0729 16.2111 20.0903 17.3261" stroke="#162741" stroke-width="1.4"/>
</svg>
