<svg width="29" height="22" viewBox="0 0 29 22" fill="none" xmlns="http://www.w3.org/2000/svg">
<path d="M21 10.2C23.2091 10.2 25 8.58823 25 6.6C25 4.61177 23.2091 3 21 3" stroke="#162741" stroke-width="1.4" stroke-linecap="round"/>
<path d="M24.5132 19C26.2348 18.4541 27.4 17.4048 27.4 16.2C27.4 14.593 25.3272 13.2627 22.626 13.0346" stroke="#162741" stroke-width="1.4" stroke-linecap="round"/>
<circle r="4.53243" transform="matrix(-1 0 0 1 14.0757 5.23243)" stroke="#162741" stroke-width="1.4"/>
<path d="M6.45141 17.2432C6.45141 18.1972 7.13441 19.1976 8.53684 19.999C9.91947 20.7891 11.8763 21.3 14.0757 21.3C16.2752 21.3 18.232 20.7891 19.6146 19.999C21.0171 19.1976 21.7001 18.1972 21.7001 17.2432C21.7001 16.2893 21.0171 15.2889 19.6146 14.4875C18.232 13.6974 16.2752 13.1865 14.0757 13.1865C11.8763 13.1865 9.91947 13.6974 8.53684 14.4875C7.13441 15.2889 6.45141 16.2893 6.45141 17.2432Z" stroke="#162741" stroke-width="1.4"/>
<path d="M7.40005 10.2C5.19092 10.2 3.40005 8.58823 3.40005 6.6C3.40005 4.61177 5.19092 3 7.40005 3" stroke="#162741" stroke-width="1.4" stroke-linecap="round"/>
<path d="M3.8868 19C2.16521 18.4541 1.00001 17.4048 1.00001 16.2C1.00001 14.593 3.07286 13.2627 5.77402 13.0346" stroke="#162741" stroke-width="1.4" stroke-linecap="round"/>
</svg>
