<svg width="26" height="22" viewBox="0 0 26 22" fill="none" xmlns="http://www.w3.org/2000/svg">
<path d="M2.7323 8.42273L2.7323 17.9843C2.7323 19.6411 4.07544 20.9843 5.7323 20.9843H20.2875C21.9444 20.9843 23.2875 19.6411 23.2875 17.9843V8.42273" stroke="#162741" stroke-width="1.4"/>
<path d="M19.4252 20.9843L19.4252 13.4921C19.4252 12.9398 18.9775 12.4921 18.4252 12.4921L15.5555 12.4921C15.0032 12.4921 14.5555 12.9398 14.5555 13.4921L14.5555 20.9843" stroke="#162741" stroke-width="1.4"/>
<path d="M8.00012 5.95055C8.00012 5.56395 7.68671 5.25055 7.30012 5.25055C6.91352 5.25055 6.60012 5.56395 6.60012 5.95055H8.00012ZM1.59033 5.95055L0.908244 5.79321L0.890332 5.87086V5.95055H1.59033ZM13.7099 5.95055C13.7099 5.56395 13.3965 5.25055 13.0099 5.25055C12.6233 5.25055 12.3099 5.56395 12.3099 5.95055H13.7099ZM19.4197 5.95055C19.4197 5.56395 19.1063 5.25055 18.7197 5.25055C18.3331 5.25055 18.0197 5.56395 18.0197 5.95055H19.4197ZM24.4295 5.95055H25.1295V5.87086L25.1116 5.79321L24.4295 5.95055ZM23.4663 1.77523L24.1484 1.61789L23.4663 1.77523ZM6.60012 5.95055C6.60012 7.14066 5.63534 8.10544 4.44522 8.10544V9.50544C6.40854 9.50544 8.00012 7.91386 8.00012 5.95055H6.60012ZM4.44522 8.10544C3.25511 8.10544 2.29033 7.14066 2.29033 5.95055H0.890332C0.890332 7.91386 2.48191 9.50544 4.44522 9.50544V8.10544ZM12.3099 5.95055C12.3099 7.14066 11.3451 8.10544 10.155 8.10544V9.50544C12.1183 9.50544 13.7099 7.91386 13.7099 5.95055H12.3099ZM10.155 8.10544C8.96489 8.10544 8.00012 7.14066 8.00012 5.95055H6.60012C6.60012 7.91386 8.19169 9.50544 10.155 9.50544V8.10544ZM18.0197 5.95055C18.0197 7.14066 17.0549 8.10544 15.8648 8.10544V9.50544C17.8281 9.50544 19.4197 7.91386 19.4197 5.95055H18.0197ZM15.8648 8.10544C14.6747 8.10544 13.7099 7.14066 13.7099 5.95055H12.3099C12.3099 7.91386 13.9015 9.50544 15.8648 9.50544V8.10544ZM23.7295 5.95055C23.7295 7.14066 22.7647 8.10544 21.5746 8.10544V9.50544C23.5379 9.50544 25.1295 7.91386 25.1295 5.95055H23.7295ZM21.5746 8.10544C20.3845 8.10544 19.4197 7.14066 19.4197 5.95055H18.0197C18.0197 7.91386 19.6113 9.50544 21.5746 9.50544V8.10544ZM2.27242 6.10789L3.23555 1.93257L1.87138 1.61789L0.908244 5.79321L2.27242 6.10789ZM3.52788 1.7H22.4919V0.3H3.52788V1.7ZM22.7842 1.93257L23.7474 6.10789L25.1116 5.79321L24.1484 1.61789L22.7842 1.93257ZM22.4919 1.7C22.6316 1.7 22.7528 1.79644 22.7842 1.93257L24.1484 1.61789C23.9705 0.846475 23.2836 0.3 22.4919 0.3V1.7ZM3.23555 1.93257C3.26695 1.79644 3.38817 1.7 3.52788 1.7V0.3C2.7362 0.3 2.04932 0.846475 1.87138 1.61789L3.23555 1.93257Z" fill="#162741"/>
<rect x="6.59033" y="12.4921" width="5" height="4" rx="1" stroke="#162741" stroke-width="1.4"/>
</svg>
