<svg width="14" height="16" viewBox="0 0 14 16" fill="none" xmlns="http://www.w3.org/2000/svg">
<path d="M12.2383 13.7383V5.51172H1.76172V13.7383H12.2383ZM9.98828 0.238281H11.5V1.75H12.2383C12.6367 1.75 12.9883 1.90234 13.293 2.20703C13.5977 2.51172 13.75 2.86328 13.75 3.26172V13.7383C13.75 14.1367 13.5977 14.4883 13.293 14.793C12.9883 15.0977 12.6367 15.25 12.2383 15.25H1.76172C1.33984 15.25 0.976562 15.0977 0.671875 14.793C0.390625 14.4883 0.25 14.1367 0.25 13.7383V3.26172C0.25 2.86328 0.390625 2.51172 0.671875 2.20703C0.976562 1.90234 1.33984 1.75 1.76172 1.75H2.5V0.238281H4.01172V1.75H9.98828V0.238281ZM10.7617 8.5V12.2617H7V8.5H10.7617Z" fill="#162741"/>
</svg>
