<svg width="21" height="18" viewBox="0 0 21 18" fill="none" xmlns="http://www.w3.org/2000/svg">
<path d="M1.2 7.294C1.2 5.83965 2.37898 4.66066 3.83333 4.66066H4.4C4.84183 4.66066 5.2 4.30249 5.2 3.86066C5.2 2.64564 6.18497 1.66066 7.4 1.66066L13.6 1.66066C14.815 1.66066 15.8 2.64564 15.8 3.86066C15.8 4.30249 16.1582 4.66066 16.6 4.66066H17.1667C18.621 4.66066 19.8 5.83965 19.8 7.294L19.8 13.9607C19.8 15.7832 18.3225 17.2607 16.5 17.2607L4.5 17.2607C2.67746 17.2607 1.2 15.7832 1.2 13.9607L1.2 7.294Z" stroke="#162741" stroke-width="1.4"/>
<circle cx="10.5" cy="9.96066" r="3.3" stroke="#162741" stroke-width="1.4"/>
</svg>
