<svg width="16" height="15" viewBox="0 0 16 15" fill="none" xmlns="http://www.w3.org/2000/svg">
<path d="M8.38672 3.73828V7.67578L11.7617 9.67969L11.1992 10.6289L7.26172 8.23828V3.73828H8.38672ZM3.74609 11.7539C4.94141 12.9258 6.35938 13.5117 8 13.5117C9.64062 13.5117 11.0469 12.9258 12.2188 11.7539C13.4141 10.5586 14.0117 9.14062 14.0117 7.5C14.0117 5.85938 13.4141 4.45312 12.2188 3.28125C11.0469 2.08594 9.64062 1.48828 8 1.48828C6.35938 1.48828 4.94141 2.08594 3.74609 3.28125C2.57422 4.45312 1.98828 5.85938 1.98828 7.5C1.98828 9.14062 2.57422 10.5586 3.74609 11.7539ZM2.69141 2.22656C4.16797 0.75 5.9375 0.0117188 8 0.0117188C10.0625 0.0117188 11.8203 0.75 13.2734 2.22656C14.75 3.67969 15.4883 5.4375 15.4883 7.5C15.4883 9.5625 14.75 11.332 13.2734 12.8086C11.8203 14.2617 10.0625 14.9883 8 14.9883C5.9375 14.9883 4.16797 14.2617 2.69141 12.8086C1.23828 11.332 0.511719 9.5625 0.511719 7.5C0.511719 5.4375 1.23828 3.67969 2.69141 2.22656Z" fill="#162741"/>
</svg>
