<svg width="20" height="17" viewBox="0 0 20 17" fill="none" xmlns="http://www.w3.org/2000/svg">
<path d="M0.7 6.33333C0.7 4.87898 1.87898 3.7 3.33333 3.7H3.9C4.34183 3.7 4.7 3.34183 4.7 2.9C4.7 1.68497 5.68497 0.7 6.9 0.7L13.1 0.7C14.315 0.7 15.3 1.68497 15.3 2.9C15.3 3.34183 15.6582 3.7 16.1 3.7H16.6667C18.121 3.7 19.3 4.87898 19.3 6.33333L19.3 13C19.3 14.8225 17.8225 16.3 16 16.3L4 16.3C2.17746 16.3 0.7 14.8225 0.7 13L0.7 6.33333Z" stroke="#162741" stroke-width="1.4"/>
<circle cx="10" cy="9" r="3.3" stroke="#162741" stroke-width="1.4"/>
</svg>
