<svg width="20" height="20" viewBox="0 0 20 20" fill="none" xmlns="http://www.w3.org/2000/svg">
<path d="M19.25 2.1875C19.25 1.62891 19.0352 1.15625 18.6484 0.726562C18.2188 0.339844 17.7461 0.125 17.1875 0.125H2.0625C1.46094 0.125 0.988281 0.339844 0.601562 0.726562C0.171875 1.15625 0 1.62891 0 2.1875V17.3125C0 17.9141 0.171875 18.3867 0.601562 18.7734C0.988281 19.2031 1.46094 19.375 2.0625 19.375H10.5273V11.7695H7.90625V8.84766H10.5273V6.69922C10.5273 5.49609 10.8281 4.59375 11.5156 3.90625C12.2031 3.21875 13.1055 2.875 14.2656 2.875C15.125 2.875 15.8984 2.91797 16.5 3.00391V5.58203H14.9531C14.3945 5.58203 14.0078 5.71094 13.793 5.96875C13.6211 6.22656 13.5352 6.57031 13.5352 7V8.84766H16.5L16.1133 11.7695H13.5352V19.375H17.1875C17.7461 19.375 18.2188 19.2031 18.6484 18.7734C19.0352 18.3867 19.25 17.9141 19.25 17.3125V2.1875Z" fill="#162741"/>
</svg>
