<svg width="20" height="20" viewBox="0 0 20 20" fill="none" xmlns="http://www.w3.org/2000/svg">
<path d="M9.625 4.80859C10.4844 4.80859 11.3008 5.06641 12.0742 5.49609C12.8477 5.92578 13.4492 6.52734 13.8789 7.30078C14.3086 8.07422 14.5664 8.89062 14.5664 9.75C14.5664 10.6523 14.3086 11.4688 13.8789 12.2422C13.4492 13.0156 12.8477 13.6172 12.0742 14.0469C11.3008 14.4766 10.4844 14.6914 9.625 14.6914C8.72266 14.6914 7.90625 14.4766 7.13281 14.0469C6.35938 13.6172 5.75781 13.0156 5.32812 12.2422C4.89844 11.4688 4.68359 10.6523 4.68359 9.75C4.68359 8.89062 4.89844 8.07422 5.32812 7.30078C5.75781 6.52734 6.35938 5.92578 7.13281 5.49609C7.90625 5.06641 8.72266 4.80859 9.625 4.80859ZM9.625 12.9727C10.4844 12.9727 11.2578 12.6719 11.9023 12.0273C12.5039 11.4258 12.8477 10.6523 12.8477 9.75C12.8477 8.89062 12.5039 8.11719 11.9023 7.47266C11.2578 6.87109 10.4844 6.52734 9.625 6.52734C8.72266 6.52734 7.94922 6.87109 7.34766 7.47266C6.70312 8.11719 6.40234 8.89062 6.40234 9.75C6.40234 10.6523 6.70312 11.4258 7.34766 12.0273C7.94922 12.6719 8.72266 12.9727 9.625 12.9727ZM15.9414 4.59375C15.9414 4.29297 15.8125 4.03516 15.5977 3.77734C15.3398 3.5625 15.082 3.43359 14.7812 3.43359C14.4375 3.43359 14.1797 3.5625 13.9648 3.77734C13.707 4.03516 13.6211 4.29297 13.6211 4.59375C13.6211 4.9375 13.707 5.19531 13.9648 5.41016C14.1797 5.66797 14.4375 5.75391 14.7812 5.75391C15.082 5.75391 15.3398 5.66797 15.5547 5.41016C15.7695 5.19531 15.8984 4.9375 15.9414 4.59375ZM19.207 5.75391C19.207 6.57031 19.25 7.90234 19.25 9.75C19.25 11.6406 19.207 12.9727 19.1641 13.7891C19.1211 14.6055 18.9922 15.293 18.8203 15.8945C18.5625 16.625 18.1328 17.2695 17.6172 17.7852C17.1016 18.3008 16.457 18.6875 15.7695 18.9453C15.168 19.1602 14.4375 19.2891 13.6211 19.332C12.8047 19.375 11.4727 19.375 9.625 19.375C7.73438 19.375 6.40234 19.375 5.58594 19.332C4.76953 19.2891 4.08203 19.1602 3.48047 18.9023C2.75 18.6875 2.10547 18.3008 1.58984 17.7852C1.07422 17.2695 0.6875 16.625 0.429688 15.8945C0.214844 15.293 0.0859375 14.6055 0.0429688 13.7891C0 12.9727 0 11.6406 0 9.75C0 7.90234 0 6.57031 0.0429688 5.75391C0.0859375 4.9375 0.214844 4.20703 0.429688 3.60547C0.6875 2.91797 1.07422 2.27344 1.58984 1.75781C2.10547 1.24219 2.75 0.8125 3.48047 0.554688C4.08203 0.382812 4.76953 0.253906 5.58594 0.210938C6.40234 0.167969 7.73438 0.125 9.625 0.125C11.4727 0.125 12.8047 0.167969 13.6211 0.210938C14.4375 0.253906 15.168 0.382812 15.7695 0.554688C16.457 0.8125 17.1016 1.24219 17.6172 1.75781C18.1328 2.27344 18.5625 2.91797 18.8203 3.60547C18.9922 4.20703 19.1211 4.9375 19.207 5.75391ZM17.1445 15.4219C17.3164 14.9492 17.4023 14.1758 17.4883 13.1016C17.4883 12.5 17.5312 11.5977 17.5312 10.4375V9.0625C17.5312 7.90234 17.4883 7 17.4883 6.39844C17.4023 5.32422 17.3164 4.55078 17.1445 4.07812C16.8008 3.21875 16.1562 2.57422 15.2969 2.23047C14.8242 2.05859 14.0508 1.97266 12.9766 1.88672C12.332 1.88672 11.4297 1.84375 10.3125 1.84375H8.9375C7.77734 1.84375 6.875 1.88672 6.27344 1.88672C5.19922 1.97266 4.42578 2.05859 3.95312 2.23047C3.05078 2.57422 2.44922 3.21875 2.10547 4.07812C1.93359 4.55078 1.80469 5.32422 1.76172 6.39844C1.71875 7.04297 1.71875 7.94531 1.71875 9.0625V10.4375C1.71875 11.5977 1.71875 12.5 1.76172 13.1016C1.80469 14.1758 1.93359 14.9492 2.10547 15.4219C2.44922 16.3242 3.09375 16.9258 3.95312 17.2695C4.42578 17.4414 5.19922 17.5703 6.27344 17.6133C6.875 17.6562 7.77734 17.6562 8.9375 17.6562H10.3125C11.4727 17.6562 12.375 17.6562 12.9766 17.6133C14.0508 17.5703 14.8242 17.4414 15.2969 17.2695C16.1562 16.9258 16.8008 16.2812 17.1445 15.4219Z" fill="#162741"/>
</svg>
