<svg width="34" height="34" viewBox="0 0 34 34" fill="none" xmlns="http://www.w3.org/2000/svg">
<path d="M22.0737 12.0443C24.8758 14.8464 24.8758 19.3895 22.0737 22.1916M11.9264 22.1916C9.12433 19.3895 9.12433 14.8464 11.9264 12.0443" stroke="#162741" stroke-width="1.4" stroke-linecap="round"/>
<path d="M25.2316 8.88637C29.7778 13.4325 29.7778 20.8034 25.2316 25.3495M8.76845 25.3495C4.22227 20.8034 4.22227 13.4325 8.76845 8.88637" stroke="#162741" stroke-width="1.4" stroke-linecap="round"/>
<path d="M19.7309 17.8251L17.1451 20.4108C16.5151 21.0408 15.438 20.5946 15.438 19.7037L15.438 14.5322C15.438 13.6413 16.5151 13.1951 17.1451 13.8251L19.7309 16.4108C20.1214 16.8014 20.1214 17.4345 19.7309 17.8251Z" stroke="#162741" stroke-width="1.4" stroke-linecap="round"/>
</svg>
