<svg width="20" height="21" viewBox="0 0 20 21" fill="none" xmlns="http://www.w3.org/2000/svg">
<path fill-rule="evenodd" clip-rule="evenodd" d="M10.2673 0.278809C10.9833 0.278809 11.6793 0.572809 12.1783 1.08381C12.6763 1.59781 12.9513 2.30281 12.9303 3.01781C12.9323 3.17881 12.9853 3.36481 13.0813 3.52781C13.2403 3.79781 13.4913 3.98781 13.7893 4.06581C14.0873 4.13981 14.3993 4.09981 14.6643 3.94281C15.9443 3.21181 17.5733 3.64981 18.3043 4.91981L18.9273 5.99881C18.9433 6.02781 18.9573 6.05581 18.9693 6.08481C19.6313 7.33581 19.1893 8.91081 17.9593 9.62981C17.7803 9.73281 17.6353 9.87681 17.5353 10.0508C17.3803 10.3198 17.3373 10.6398 17.4153 10.9338C17.4953 11.2338 17.6863 11.4828 17.9553 11.6368C18.5623 11.9858 19.0153 12.5738 19.1963 13.2528C19.3773 13.9308 19.2783 14.6668 18.9253 15.2738L18.2613 16.3798C17.5303 17.6358 15.9013 18.0708 14.6343 17.3388C14.4653 17.2418 14.2703 17.1888 14.0763 17.1838H14.0703C13.7813 17.1838 13.4843 17.3068 13.2683 17.5218C13.0493 17.7408 12.9293 18.0328 12.9313 18.3428C12.9243 19.8118 11.7293 20.9998 10.2673 20.9998H9.01432C7.54532 20.9998 6.35032 19.8058 6.35032 18.3368C6.34832 18.1558 6.29632 17.9678 6.19932 17.8048C6.04232 17.5308 5.78832 17.3348 5.49532 17.2568C5.20432 17.1788 4.88532 17.2218 4.62332 17.3738C3.99532 17.7238 3.25632 17.8088 2.58032 17.6188C1.90532 17.4278 1.32232 16.9638 0.98032 16.3488L0.35532 15.2718C-0.37568 14.0038 0.0593197 12.3788 1.32532 11.6468C1.68432 11.4398 1.90732 11.0538 1.90732 10.6398C1.90732 10.2258 1.68432 9.83881 1.32532 9.63181C0.0583198 8.89581 -0.37568 7.26681 0.35432 5.99881L1.03232 4.88581C1.75332 3.63181 3.38332 3.18981 4.65432 3.91981C4.82732 4.02281 5.01532 4.07481 5.20632 4.07681C5.82932 4.07681 6.35032 3.56281 6.36032 2.93081C6.35632 2.23381 6.63132 1.56481 7.13232 1.05981C7.63532 0.555809 8.30332 0.278809 9.01432 0.278809H10.2673ZM10.2673 1.77881H9.01432C8.70432 1.77881 8.41432 1.89981 8.19532 2.11781C7.97732 2.33681 7.85832 2.62781 7.86032 2.93781C7.83932 4.39981 6.64432 5.57681 5.19732 5.57681C4.73332 5.57181 4.28632 5.44681 3.89832 5.21481C3.35332 4.90481 2.64132 5.09581 2.32232 5.65081L1.64532 6.76381C1.33532 7.30181 1.52532 8.01281 2.07732 8.33381C2.89632 8.80781 3.40732 9.69181 3.40732 10.6398C3.40732 11.5878 2.89632 12.4708 2.07532 12.9458C1.52632 13.2638 1.33632 13.9708 1.65432 14.5208L2.28532 15.6088C2.44132 15.8898 2.69632 16.0928 2.99132 16.1758C3.28532 16.2578 3.60932 16.2228 3.87932 16.0728C4.27632 15.8398 4.73832 15.7188 5.20232 15.7188C5.43132 15.7188 5.66032 15.7478 5.88432 15.8078C6.56032 15.9898 7.14732 16.4418 7.49532 17.0488C7.72132 17.4298 7.84632 17.8748 7.85032 18.3288C7.85032 18.9788 8.37232 19.4998 9.01432 19.4998H10.2673C10.9063 19.4998 11.4283 18.9818 11.4313 18.3428C11.4273 17.6368 11.7033 16.9658 12.2083 16.4608C12.7063 15.9628 13.4023 15.6638 14.0983 15.6838C14.5543 15.6948 14.9933 15.8178 15.3803 16.0378C15.9373 16.3568 16.6483 16.1668 16.9703 15.6168L17.6343 14.5098C17.7823 14.2548 17.8253 13.9348 17.7463 13.6398C17.6683 13.3448 17.4723 13.0888 17.2083 12.9378C16.5903 12.5818 16.1493 12.0078 15.9663 11.3198C15.7853 10.6448 15.8843 9.90781 16.2373 9.30081C16.4673 8.90081 16.8043 8.56381 17.2083 8.33181C17.7503 8.01481 17.9403 7.30581 17.6253 6.75381C17.6123 6.73181 17.6003 6.70881 17.5903 6.68481L17.0043 5.66881C16.6853 5.11381 15.9753 4.92281 15.4183 5.23981C14.8163 5.59581 14.1003 5.69781 13.4123 5.51681C12.7253 5.33881 12.1493 4.90381 11.7903 4.28981C11.5603 3.90581 11.4353 3.45881 11.4313 3.00381C11.4403 2.66181 11.3203 2.35481 11.1023 2.12981C10.8853 1.90581 10.5803 1.77881 10.2673 1.77881ZM9.64522 7.25291C11.5122 7.25291 13.0312 8.77291 13.0312 10.6399C13.0312 12.5069 11.5122 14.0249 9.64522 14.0249C7.77822 14.0249 6.25922 12.5069 6.25922 10.6399C6.25922 8.77291 7.77822 7.25291 9.64522 7.25291ZM9.64522 8.75291C8.60522 8.75291 7.75922 9.59991 7.75922 10.6399C7.75922 11.6799 8.60522 12.5249 9.64522 12.5249C10.6852 12.5249 11.5312 11.6799 11.5312 10.6399C11.5312 9.59991 10.6852 8.75291 9.64522 8.75291Z" fill="#616B7B"/>
</svg>
