<svg width="26" height="22" viewBox="0 0 26 22" fill="none" xmlns="http://www.w3.org/2000/svg">
<path d="M2.75769 8.43848L2.75769 18C2.75769 19.6569 4.10083 21 5.75769 21H20.3129C21.9698 21 23.3129 19.6569 23.3129 18V8.43848" stroke="#616B7B" stroke-width="1.4"/>
<path d="M19.4506 21L19.4506 13.5079C19.4506 12.9556 19.0028 12.5079 18.4506 12.5079L15.5809 12.5079C15.0286 12.5079 14.5809 12.9556 14.5809 13.5079L14.5809 21" stroke="#616B7B" stroke-width="1.4"/>
<path d="M8.02551 5.96629C8.02551 5.57969 7.71211 5.26629 7.32551 5.26629C6.93891 5.26629 6.62551 5.57969 6.62551 5.96629H8.02551ZM1.61572 5.96629L0.933634 5.80895L0.915723 5.8866V5.96629H1.61572ZM13.7353 5.96629C13.7353 5.57969 13.4219 5.26629 13.0353 5.26629C12.6487 5.26629 12.3353 5.57969 12.3353 5.96629H13.7353ZM19.4451 5.96629C19.4451 5.57969 19.1317 5.26629 18.7451 5.26629C18.3585 5.26629 18.0451 5.57969 18.0451 5.96629H19.4451ZM24.4549 5.96629H25.1549V5.8866L25.1369 5.80895L24.4549 5.96629ZM23.4917 1.79098L24.1738 1.63364L23.4917 1.79098ZM6.62551 5.96629C6.62551 7.15641 5.66073 8.12119 4.47061 8.12119V9.52119C6.43393 9.52119 8.02551 7.92961 8.02551 5.96629H6.62551ZM4.47061 8.12119C3.2805 8.12119 2.31572 7.15641 2.31572 5.96629H0.915723C0.915723 7.92961 2.5073 9.52119 4.47061 9.52119V8.12119ZM12.3353 5.96629C12.3353 7.15641 11.3705 8.12119 10.1804 8.12119V9.52119C12.1437 9.52119 13.7353 7.92961 13.7353 5.96629H12.3353ZM10.1804 8.12119C8.99028 8.12119 8.02551 7.15641 8.02551 5.96629H6.62551C6.62551 7.92961 8.21709 9.52119 10.1804 9.52119V8.12119ZM18.0451 5.96629C18.0451 7.15641 17.0803 8.12119 15.8902 8.12119V9.52119C17.8535 9.52119 19.4451 7.92961 19.4451 5.96629H18.0451ZM15.8902 8.12119C14.7001 8.12119 13.7353 7.15641 13.7353 5.96629H12.3353C12.3353 7.92961 13.9269 9.52119 15.8902 9.52119V8.12119ZM23.7549 5.96629C23.7549 7.15641 22.7901 8.12119 21.6 8.12119V9.52119C23.5633 9.52119 25.1549 7.92961 25.1549 5.96629H23.7549ZM21.6 8.12119C20.4099 8.12119 19.4451 7.15641 19.4451 5.96629H18.0451C18.0451 7.92961 19.6367 9.52119 21.6 9.52119V8.12119ZM2.29781 6.12363L3.26094 1.94832L1.89677 1.63364L0.933634 5.80895L2.29781 6.12363ZM3.55327 1.71575H22.5173V0.315747H3.55327V1.71575ZM22.8096 1.94832L23.7728 6.12363L25.1369 5.80895L24.1738 1.63364L22.8096 1.94832ZM22.5173 1.71575C22.657 1.71575 22.7782 1.81218 22.8096 1.94832L24.1738 1.63364C23.9959 0.862222 23.309 0.315747 22.5173 0.315747V1.71575ZM3.26094 1.94832C3.29235 1.81218 3.41356 1.71575 3.55327 1.71575V0.315747C2.76159 0.315747 2.07471 0.862222 1.89677 1.63364L3.26094 1.94832Z" fill="#616B7B"/>
<rect x="6.61572" y="12.5079" width="5" height="4" rx="1" stroke="#616B7B" stroke-width="1.4"/>
</svg>
