<svg width="4" height="16" viewBox="0 0 4 16" fill="none" xmlns="http://www.w3.org/2000/svg">
<path d="M0.710938 12.2109C1.08333 11.8385 1.51302 11.6523 2 11.6523C2.48698 11.6523 2.91667 11.8385 3.28906 12.2109C3.66146 12.5833 3.84766 13.013 3.84766 13.5C3.84766 13.987 3.66146 14.4167 3.28906 14.7891C2.91667 15.1615 2.48698 15.3477 2 15.3477C1.51302 15.3477 1.08333 15.1615 0.710938 14.7891C0.338542 14.4167 0.152344 13.987 0.152344 13.5C0.152344 13.013 0.338542 12.5833 0.710938 12.2109ZM0.710938 6.71094C1.08333 6.33854 1.51302 6.15234 2 6.15234C2.48698 6.15234 2.91667 6.33854 3.28906 6.71094C3.66146 7.08333 3.84766 7.51302 3.84766 8C3.84766 8.48698 3.66146 8.91667 3.28906 9.28906C2.91667 9.66146 2.48698 9.84766 2 9.84766C1.51302 9.84766 1.08333 9.66146 0.710938 9.28906C0.338542 8.91667 0.152344 8.48698 0.152344 8C0.152344 7.51302 0.338542 7.08333 0.710938 6.71094ZM3.28906 3.78906C2.91667 4.16146 2.48698 4.34766 2 4.34766C1.51302 4.34766 1.08333 4.16146 0.710938 3.78906C0.338542 3.41667 0.152344 2.98698 0.152344 2.5C0.152344 2.01302 0.338542 1.58333 0.710938 1.21094C1.08333 0.838542 1.51302 0.652344 2 0.652344C2.48698 0.652344 2.91667 0.838542 3.28906 1.21094C3.66146 1.58333 3.84766 2.01302 3.84766 2.5C3.84766 2.98698 3.66146 3.41667 3.28906 3.78906Z" fill="#162741"/>
</svg>
