<svg width="35" height="35" viewBox="0 0 35 35" fill="none" xmlns="http://www.w3.org/2000/svg">
<circle cx="17.5" cy="17.5" r="17.5" fill="#162741" fill-opacity="0.75"/>
<path fill-rule="evenodd" clip-rule="evenodd" d="M18.1468 9C18.7245 9 19.2862 9.23725 19.6889 9.6496C20.0907 10.0644 20.3126 10.6333 20.2957 11.2103C20.2973 11.3402 20.3401 11.4903 20.4175 11.6218C20.5458 11.8397 20.7484 11.993 20.9889 12.056C21.2293 12.1157 21.4811 12.0834 21.695 11.9567C22.7279 11.3668 24.0424 11.7203 24.6323 12.7451L25.135 13.6158C25.1479 13.6392 25.1592 13.6618 25.1689 13.6852C25.7031 14.6947 25.3464 15.9657 24.3539 16.5459C24.2094 16.629 24.0924 16.7452 24.0117 16.8856C23.8867 17.1027 23.852 17.3609 23.9149 17.5982C23.9795 17.8402 24.1336 18.0412 24.3507 18.1654C24.8405 18.4471 25.206 18.9216 25.3521 19.4695C25.4982 20.0166 25.4183 20.6105 25.1334 21.1004L24.5976 21.9928C24.0077 23.0064 22.6932 23.3574 21.6707 22.7667C21.5344 22.6884 21.377 22.6457 21.2205 22.6416H21.2156C20.9824 22.6416 20.7427 22.7409 20.5684 22.9144C20.3917 23.0911 20.2949 23.3268 20.2965 23.5769C20.2908 24.7623 19.3265 25.721 18.1468 25.721H17.1356C15.9502 25.721 14.9859 24.7575 14.9859 23.5721C14.9843 23.426 14.9423 23.2743 14.864 23.1428C14.7374 22.9217 14.5324 22.7635 14.2959 22.7006C14.0611 22.6376 13.8037 22.6723 13.5923 22.795C13.0855 23.0774 12.4892 23.146 11.9437 22.9927C11.399 22.8385 10.9285 22.4641 10.6525 21.9678L10.1482 21.0987C9.55829 20.0755 9.90932 18.7642 10.9309 18.1735C11.2206 18.0065 11.4006 17.695 11.4006 17.3609C11.4006 17.0268 11.2206 16.7145 10.9309 16.5475C9.90851 15.9536 9.55829 14.639 10.1474 13.6158L10.6945 12.7177C11.2763 11.7057 12.5917 11.3491 13.6173 11.9381C13.7569 12.0213 13.9086 12.0632 14.0627 12.0648C14.5655 12.0648 14.9859 11.6501 14.994 11.1401C14.9907 10.5776 15.2127 10.0377 15.6169 9.63024C16.0228 9.22353 16.5619 9 17.1356 9H18.1468ZM18.1468 10.2104H17.1356C16.8855 10.2104 16.6515 10.3081 16.4747 10.484C16.2988 10.6607 16.2028 10.8955 16.2044 11.1457C16.1875 12.3255 15.2231 13.2753 14.0555 13.2753C13.681 13.2712 13.3203 13.1704 13.0072 12.9832C12.5674 12.733 11.9929 12.8871 11.7355 13.335L11.1892 14.2331C10.939 14.6673 11.0923 15.241 11.5378 15.5001C12.1987 15.8826 12.611 16.5959 12.611 17.3609C12.611 18.1259 12.1987 18.8384 11.5361 19.2218C11.0931 19.4784 10.9398 20.0489 11.1964 20.4927L11.7056 21.3707C11.8315 21.5974 12.0373 21.7613 12.2753 21.8282C12.5126 21.8944 12.774 21.8662 12.9919 21.7451C13.3123 21.5571 13.6851 21.4594 14.0595 21.4594C14.2443 21.4594 14.4291 21.4829 14.6099 21.5313C15.1554 21.6781 15.629 22.0429 15.9099 22.5327C16.0922 22.8402 16.1931 23.1993 16.1963 23.5656C16.1963 24.0901 16.6176 24.5106 17.1356 24.5106H18.1468C18.6624 24.5106 19.0836 24.0926 19.0861 23.5769C19.0828 23.0072 19.3056 22.4657 19.7131 22.0582C20.1149 21.6563 20.6766 21.4151 21.2382 21.4312C21.6062 21.4401 21.9604 21.5393 22.2727 21.7169C22.7222 21.9743 23.296 21.821 23.5558 21.3771L24.0916 20.4838C24.2111 20.2781 24.2458 20.0198 24.182 19.7818C24.1191 19.5437 23.9609 19.3371 23.7479 19.2153C23.2492 18.928 22.8933 18.4648 22.7456 17.9096C22.5996 17.3649 22.6794 16.7702 22.9643 16.2804C23.1499 15.9576 23.4219 15.6857 23.7479 15.4984C24.1852 15.2426 24.3386 14.6705 24.0844 14.2251C24.0739 14.2073 24.0642 14.1887 24.0561 14.1694L23.5832 13.3495C23.3258 12.9016 22.7529 12.7475 22.3034 13.0033C21.8176 13.2906 21.2398 13.3729 20.6846 13.2269C20.1303 13.0832 19.6655 12.7322 19.3758 12.2367C19.1902 11.9268 19.0893 11.5661 19.0861 11.199C19.0933 10.923 18.9965 10.6752 18.8206 10.4937C18.6455 10.3129 18.3993 10.2104 18.1468 10.2104ZM17.6447 14.6278C19.1513 14.6278 20.3771 15.8544 20.3771 17.361C20.3771 18.8676 19.1513 20.0925 17.6447 20.0925C16.1382 20.0925 14.9124 18.8676 14.9124 17.361C14.9124 15.8544 16.1382 14.6278 17.6447 14.6278ZM17.6447 15.8383C16.8055 15.8383 16.1228 16.5217 16.1228 17.361C16.1228 18.2002 16.8055 18.8821 17.6447 18.8821C18.484 18.8821 19.1667 18.2002 19.1667 17.361C19.1667 16.5217 18.484 15.8383 17.6447 15.8383Z" fill="white"/>
</svg>
