<svg width="35" height="35" viewBox="0 0 35 35" fill="none" xmlns="http://www.w3.org/2000/svg">
<circle cx="17.5" cy="17.5" r="17.5" fill="#162741" fill-opacity="0.75"/>
<path d="M21.9764 18.0262C21.9764 15.6154 20.0221 13.6611 17.6113 13.6611C16.5042 13.6611 15.4934 14.0733 14.7239 14.7524" stroke="white" stroke-width="1.4" stroke-linecap="round"/>
<path d="M21.5384 18.2125L22.4145 18.2125L21.9764 18.8696L21.5384 18.2125Z" fill="white" stroke="white" stroke-width="1.4" stroke-linecap="round"/>
<path d="M13.2462 18.0263C13.2462 20.437 15.2005 22.3914 17.6112 22.3914C18.7183 22.3914 19.7291 21.9792 20.4986 21.3001" stroke="white" stroke-width="1.4" stroke-linecap="round"/>
<path d="M13.6842 18.1219L12.808 18.1219L13.2461 17.4648L13.6842 18.1219Z" fill="white" stroke="white" stroke-width="1.4" stroke-linecap="round"/>
<path d="M8.2 15.3333C8.2 13.879 9.37898 12.7 10.8333 12.7H11.4C11.8418 12.7 12.2 12.3418 12.2 11.9C12.2 10.685 13.185 9.7 14.4 9.7H20.6C21.815 9.7 22.8 10.685 22.8 11.9C22.8 12.3418 23.1582 12.7 23.6 12.7H24.1667C25.621 12.7 26.8 13.879 26.8 15.3333L26.8 22C26.8 23.8225 25.3225 25.3 23.5 25.3L11.5 25.3C9.67746 25.3 8.2 23.8225 8.2 22V15.3333Z" stroke="white" stroke-width="1.4"/>
</svg>
